PathFileType	4	(X/Y/Z)	OpenSim_Sub07_EMGStiffKnee_Magnet.trc
DataRate	CameraRate	NumFrames	NumMarkers	Units	OrigDataRate	OrigDataStartFrame	OrigNumFrames
100	100	16	8	m	100	5542	7388
Frame#	Time	torso_imu_offset_imu	pelvis_imu_offset_imu	tibia_r_imu_offset_imu	femur_r_imu_offset_imu	tibia_l_imu_offset_imu	femur_l_imu_offset_imu	toes_r_imu_offset_imu	toes_l_imu_offset_imu
				X1	Y1	Z1	X2	Y2	Z2	X3	Y3	Z3	X4	Y4	Z4	X5	Y5	Z5	X6	Y6	Z6	X7	Y7	Z7	X8		Y8	Z8	

5542	55.41000000	0.93475419	0.23742298	0.07892322	-0.69891960	0.21952648	-0.66731173	-0.01855727	-0.84088741	0.06454388	-0.86000243	-0.11523861	-0.12810085	-0.55292945	0.58675382	0.27873196	-0.63480245	0.24563191	0.54273708	-0.74130176	-0.46232645	0.27380628	-0.75074859	-0.23142480	-0.32762132
5543	55.42000000	0.92842584	0.23174085	0.08724820	-0.69651041	0.22687856	-0.67147005	-0.04713975	-0.83516001	0.05994483	-0.86199710	-0.10389713	-0.12121963	-0.55053655	0.59196698	0.27578176	-0.63020120	0.25290377	0.54833785	-0.75131021	-0.46336084	0.24707468	-0.74447242	-0.23598675	-0.32382688
5544	55.43000000	0.93279721	0.23309272	0.08183588	-0.69640408	0.22670125	-0.67466806	-0.07537063	-0.83110564	0.06591675	-0.86974878	-0.09777947	-0.11468712	-0.55111054	0.59487249	0.28069701	-0.63416977	0.25428038	0.54929171	-0.75608476	-0.45860740	0.21888630	-0.74641332	-0.23204511	-0.32774213
5545	55.44000000	0.93154121	0.23624910	0.07941808	-0.69252226	0.22908889	-0.67314730	-0.09823132	-0.83068450	0.06478828	-0.87236178	-0.08956811	-0.11267596	-0.54602193	0.59635235	0.27765151	-0.62095060	0.25358886	0.54843716	-0.76261434	-0.45322951	0.18632118	-0.74739397	-0.22999523	-0.33249668
5546	55.45000000	0.92865531	0.23600157	0.07903381	-0.68485511	0.23111068	-0.67156800	-0.12575190	-0.82069080	0.06998455	-0.86830065	-0.07893659	-0.11445895	-0.54722506	0.60830420	0.28325229	-0.61985829	0.25947798	0.55120646	-0.77252114	-0.44460823	0.15652821	-0.74493226	-0.23579063	-0.33770149
5547	55.46000000	0.92832335	0.23464400	0.08242419	-0.68288850	0.22863525	-0.67244586	-0.15376213	-0.81967090	0.07304169	-0.87091461	-0.06980924	-0.11492268	-0.54602236	0.61189186	0.28410255	-0.61956642	0.26290997	0.55748445	-0.77888505	-0.43622549	0.12585123	-0.75076998	-0.23009116	-0.34304092
5548	55.47000000	0.92617456	0.23512127	0.08609860	-0.68687824	0.23045148	-0.67581780	-0.18044564	-0.81628525	0.07816920	-0.87129994	-0.06393102	-0.11045666	-0.53982333	0.61343269	0.27926369	-0.61134326	0.26835899	0.56300102	-0.78654450	-0.42349977	0.08994230	-0.74975131	-0.22932129	-0.34082287
5549	55.48000000	0.92814158	0.23766928	0.08416950	-0.68539421	0.23065359	-0.68084240	-0.21812336	-0.80433211	0.08847036	-0.87388820	-0.05456629	-0.10750651	-0.53954107	0.61379113	0.28236780	-0.60794432	0.27051755	0.56673638	-0.79129784	-0.41687334	0.04956618	-0.75197649	-0.23005024	-0.34524978
5550	55.49000000	0.92713264	0.23493855	0.08742037	-0.68343447	0.23580150	-0.67882903	-0.24714545	-0.79413820	0.09450653	-0.87666481	-0.04827557	-0.10157153	-0.53867034	0.62134485	0.28052757	-0.60077681	0.27030001	0.56896732	-0.80030888	-0.41285142	0.01401820	-0.75955693	-0.22700788	-0.35987907
5551	55.50000000	0.92565102	0.23229096	0.08913628	-0.68056913	0.24133570	-0.68026625	-0.27609824	-0.78084044	0.10835972	-0.87640834	-0.04506957	-0.10585263	-0.53123670	0.62253385	0.28433783	-0.59153509	0.27227469	0.57488049	-0.79939743	-0.40163242	-0.02970525	-0.76190530	-0.22204748	-0.36550837
5552	55.51000000	0.92979187	0.23290214	0.09325827	-0.67600321	0.23779592	-0.68592596	-0.31287090	-0.76856915	0.11683312	-0.87257201	-0.04169306	-0.10096809	-0.52523159	0.62641494	0.28616847	-0.59306877	0.28029720	0.57684066	-0.80453879	-0.39982283	-0.07769824	-0.76672693	-0.22376676	-0.35954941
5553	55.52000000	0.92782178	0.23644569	0.09847618	-0.67189927	0.24088242	-0.68497892	-0.34545996	-0.74627990	0.12820607	-0.87030119	-0.03111570	-0.10099801	-0.52714876	0.63251793	0.28382921	-0.58885211	0.28478466	0.58302149	-0.80612898	-0.39641251	-0.12751263	-0.77110603	-0.22575410	-0.36868673
5554	55.53000000	0.92718486	0.23465812	0.09420823	-0.66731846	0.24388976	-0.68965585	-0.37902803	-0.72743703	0.14069072	-0.87143425	-0.02786690	-0.10725991	-0.52390079	0.63291212	0.28757894	-0.58170943	0.29168298	0.58727445	-0.79499874	-0.39205805	-0.17218073	-0.77577310	-0.21687708	-0.36884936
5555	55.54000000	0.93019308	0.23370710	0.09779559	-0.66430380	0.24141226	-0.69276828	-0.41532397	-0.70900274	0.13853992	-0.87323052	-0.02870786	-0.09937274	-0.51850229	0.63834434	0.28182543	-0.57703536	0.29867646	0.58043259	-0.79007503	-0.38654688	-0.21239449	-0.78122317	-0.21139123	-0.37043115
5556	55.55000000	0.93014171	0.23880634	0.10030860	-0.66613029	0.24062781	-0.69534025	-0.45232906	-0.69152987	0.13121725	-0.87350709	-0.02695607	-0.09531036	-0.51703924	0.64163874	0.28229066	-0.57521394	0.30307472	0.58158098	-0.77706648	-0.37658073	-0.26119191	-0.78778415	-0.21510844	-0.37410268
5557	55.56000000	0.92865948	0.24155180	0.09298572	-0.66594597	0.24672884	-0.69165332	-0.48428328	-0.67527414	0.12006826	-0.87524705	-0.02279706	-0.09050016	-0.51482225	0.64982052	0.28682323	-0.57459427	0.30724603	0.58904480	-0.75852799	-0.36615382	-0.30530841	-0.79585162	-0.20751669	-0.37335324
